<svg width="643" height="214" viewBox="0 0 643 214" fill="none" xmlns="http://www.w3.org/2000/svg">
<g clip-path="url(#clip0_17_2746)">
<path d="M101.016 168.511C96.694 194.591 80.3012 209.755 54.9668 209.755C23.6714 209.755 4 185.645 4 153.651C4 121.657 23.6714 97.2444 54.9668 97.2444C79.258 97.2444 93.3802 111.498 98 136.365L77.0226 137.73C74.3402 124.235 66.1437 116.653 54.5197 116.653C35.8915 116.653 27.248 132.574 27.248 153.651C27.248 174.576 36.0405 190.346 54.5197 190.346C66.8889 190.346 74.9363 182.158 77.3207 167.601L101.016 168.511Z" fill="black"/>
<path d="M146.916 102.097C168.822 102.097 184.917 113.621 184.917 134.394C184.917 148.041 177.168 157.29 165.693 160.323C177.019 161.688 182.384 167.146 183.278 178.822L185.96 209.755H163.16L161.073 182.764C160.328 173.363 155.41 170.331 143.041 170.331H123.221V209.755H100.569V102.097H146.916ZM123.221 151.073H143.637C155.261 151.073 161.669 145.766 161.669 136.365C161.669 126.812 155.41 121.505 143.637 121.505H123.221V151.073Z" fill="black"/>
<path d="M185.96 209.755L224.111 102.097H250.936L289.086 209.755H265.54L257.791 186.858H217.107L209.357 209.755H185.96ZM217.107 186.858H257.791L237.523 126.358L217.107 186.858Z" fill="black"/>
<path d="M289.086 102.097H362.109L349.411 121.505H311.738V147.586H334.888L321.627 166.691H311.738V178.822L289.086 209.755V102.097Z" fill="black"/>
<path d="M435.548 102.097V121.505H403.955V209.755H381.154V121.505H349.411V102.097H435.548Z" fill="black"/>
<path d="M451.409 165.234C451.558 179.942 457.072 187.676 467.206 187.676C477.638 187.676 483.152 180.094 483.152 165.992L482.821 97.0002H505.5L505.794 131.297L505.953 165.992C505.953 190.708 490.156 207.084 466.61 207.084C444.405 207.084 428.757 190.405 428.608 166.447L451.409 165.234Z" fill="black"/>
<path d="M533.813 175.638C535.75 187.162 543.798 194.743 557.061 194.743C567.195 194.743 574.05 190.649 573.901 182.764C573.752 174.879 567.195 170.331 550.653 166.236C527.703 160.626 512.949 151.225 512.949 133.939C512.949 114.379 529.044 102.097 553.186 102.097C576.732 102.097 592.827 116.805 595.361 138.488L572.709 139.701C571.517 128.329 563.767 121.202 552.59 121.202C542.755 121.202 535.75 126.358 536.198 134.242C536.496 143.34 546.927 146.373 558.253 149.254C581.948 154.561 597 164.872 597 182.006C597 202.476 579.266 214 556.465 214C530.684 214 512.502 199.444 511.012 176.699L533.813 175.638Z" fill="black"/>
<path d="M101 1.00002H174.01L159.423 20.3673H123.648V46.392H143.932L131.643 65.4566H123.648V75.7301L101 108.428V1.00002Z" fill="black"/>
<path d="M174.01 1.00002H247.616L239.5 20.3673H196.658V45.0302L229.165 45.0302L222.22 64.0948H196.658V89.0604H245.044L238.167 108.428H174.01V1.00002Z" fill="black"/>
<path d="M238.167 108.428L276.311 1.00002H303.131L341.275 108.428H317.733L310.044 85.5804H269.308L261.56 108.428H238.167ZM275.715 66.667L269.308 85.5804H310.044L289.721 25.2091L275.715 66.667Z" fill="black"/>
<path d="M395.66 1.00002V20.3673H364.072V108.428H341.275V20.3673H309.538L303.131 1.00002H395.66Z" fill="black"/>
<path d="M482.825 69.8446C482.825 94.9615 465.988 111 439.317 111C412.497 111 395.66 94.9615 395.66 69.8446V1.00002L418.308 1.00005V69.8446C418.308 84.0674 426.056 91.6327 439.317 91.6327C452.429 91.6327 460.177 84.0674 460.177 69.8446V1.00005H482.825V69.8446Z" fill="black"/>
<path d="M529.164 1C551.067 1 567.159 12.4993 567.159 33.2283C567.159 46.8459 559.411 56.0756 547.938 59.1017C559.262 60.4635 564.626 65.9105 565.52 77.5611L568.202 108.428H545.405L543.319 81.4951C542.574 72.1141 537.657 69.0879 525.29 69.0879H505.473V108.428H482.825V1.00005L529.164 1ZM505.473 49.872H525.886C537.508 49.872 543.915 44.5763 543.915 35.1953C543.915 25.663 537.657 20.3672 525.886 20.3672H505.473V49.872Z" fill="black"/>
<path d="M568.202 1H641.808V20.3672H590.85V45.0302H640.02V64.0948H590.85V89.0604H643V108.428H568.202V1Z" fill="black"/>
<path d="M482.825 1.00005L505.464 1.00024L505.473 20.3672H482.825V1.00005Z" fill="#D9D9D9"/>
<path d="M341.248 20.34L364.137 20.34L341.248 102V20.34Z" fill="#D9D9D9"/>
<path d="M52.6558 2.27198L4.54083 96.6091L101.835 96.0381L52.6558 2.27198ZM52.755 19.7997L80.4748 72.6498L43.7633 72.8652L47.7725 65.0034L67.3091 64.8888L52.8541 37.3227L30.6912 80.7803L84.5726 80.464L88.6705 88.2771L17.6166 88.6941L52.755 19.7997Z" fill="black"/>
<path d="M100.576 121.5L123.215 121.5V151H100.576V121.5Z" fill="#D9D9D9"/>
<path d="M505.844 171.791L493.922 171.725L482 171.659L505.5 92.0002L505.844 171.791Z" fill="#D9D9D9"/>
</g>
<defs>
<clipPath id="clip0_17_2746">
<rect width="643" height="214" fill="white"/>
</clipPath>
</defs>
</svg>
