<svg width="864" height="81" viewBox="0 0 864 81" fill="none" xmlns="http://www.w3.org/2000/svg">
<g clip-path="url(#clip0_17_2190)">
<path d="M530.579 49.6188C527.683 67.0998 516.695 77.2632 499.714 77.2632C478.738 77.2632 465.553 61.1034 465.553 39.6587C465.553 18.2141 478.738 1.85107 499.714 1.85107C515.996 1.85107 525.461 11.4046 528.558 28.0725L514.498 28.9872C512.7 19.9418 507.206 14.8602 499.415 14.8602C486.929 14.8602 481.135 25.5317 481.135 39.6587C481.135 53.6842 487.029 64.2541 499.415 64.2541C507.705 64.2541 513.099 58.7658 514.697 49.009L530.579 49.6188Z" fill="black"/>
<path d="M561.345 5.10334C576.028 5.10334 586.816 12.8275 586.816 26.7513C586.816 35.8983 581.622 42.0979 573.93 44.1306C581.522 45.0453 585.118 48.7041 585.717 56.5299L587.515 77.2632H572.232L570.834 59.1724C570.335 52.8711 567.038 50.8384 558.748 50.8384H545.463V77.2632H530.28V5.10334H561.345ZM545.463 37.931H559.147C566.938 37.931 571.233 34.3738 571.233 28.0725C571.233 21.6696 567.038 18.1124 559.147 18.1124H545.463V37.931Z" fill="black"/>
<path d="M587.515 77.2632L613.086 5.10334H631.066L656.637 77.2632H640.855L635.661 61.9165H608.392L603.197 77.2632H587.515ZM608.392 61.9165H635.661L622.076 21.3647L608.392 61.9165Z" fill="black"/>
<path d="M656.637 5.10334H705.582L697.071 18.1124H671.82V35.5934H687.336L678.448 48.3992H671.82V56.5299L656.637 77.2632V5.10334Z" fill="black"/>
<path d="M754.806 5.10334V18.1124H733.63V77.2632H718.347V18.1124H697.071V5.10334H754.806Z" fill="black"/>
<path d="M766.548 50.8385C766.648 60.6969 770.344 65.8803 777.136 65.8803C784.129 65.8803 787.824 60.7986 787.824 51.3466L787.603 5.10341H802.804L803.001 28.0915L803.107 51.3466C803.107 67.9129 792.519 78.8894 776.737 78.8894C761.854 78.8894 751.366 67.7096 751.266 51.6516L766.548 50.8385Z" fill="black"/>
<path d="M820.67 54.3956C821.968 62.1197 827.362 67.2014 836.252 67.2014C843.045 67.2014 847.639 64.4573 847.54 59.1724C847.44 53.8874 843.045 50.8384 831.957 48.0943C816.574 44.3339 806.686 38.0326 806.686 26.4464C806.686 13.3357 817.473 5.10334 833.655 5.10334C849.437 5.10334 860.225 14.9618 861.923 29.4954L846.74 30.3084C845.941 22.6859 840.747 17.9092 833.256 17.9092C826.663 17.9092 821.968 21.3647 822.268 26.6496C822.468 32.7477 829.46 34.7803 837.051 36.7114C852.933 40.2685 863.022 47.1796 863.022 58.6642C863.022 72.3847 851.135 80.1089 835.853 80.1089C818.572 80.1089 806.386 70.352 805.387 55.107L820.67 54.3956Z" fill="black"/>
<path d="M86.0626 2.3575H134.999L125.222 15.3387H101.243V32.7823H114.839L106.602 45.5607H101.243V52.4467L86.0626 74.3629V2.3575Z" fill="black"/>
<path d="M134.999 2.3575H184.335L178.895 15.3387H150.179V31.8696L171.968 31.8695L167.313 44.648H150.179V61.3816H182.611L178.002 74.3629H134.999V2.3575Z" fill="black"/>
<path d="M178.002 74.3629L203.568 2.3575H221.545L247.112 74.3629H231.332L226.178 59.0491H198.874L193.681 74.3629H178.002ZM203.169 46.3721L198.874 59.0491H226.178L212.557 18.5841L203.169 46.3721Z" fill="black"/>
<path d="M283.564 2.3575V15.3387H262.392V74.3629H247.112V15.3387H225.839L221.545 2.3575H283.564Z" fill="black"/>
<path d="M341.988 48.5019C341.988 65.3369 330.703 76.087 312.826 76.087C294.849 76.087 283.564 65.3369 283.564 48.5019V2.3575L298.744 2.35751V48.5019C298.744 58.035 303.938 63.1058 312.826 63.1058C321.615 63.1058 326.808 58.035 326.808 48.5019V2.35751H341.988V48.5019Z" fill="black"/>
<path d="M373.048 2.35748C387.728 2.35748 398.514 10.0651 398.514 23.9591C398.514 33.0865 393.321 39.2729 385.631 41.3012C393.221 42.214 396.817 45.865 397.416 53.674L399.214 74.3629H383.933L382.535 56.3108C382.036 50.023 378.74 47.9947 370.451 47.9947H357.168V74.3629H341.988V2.35751L373.048 2.35748ZM357.168 35.1148H370.85C378.64 35.1148 382.935 31.5653 382.935 25.2775C382.935 18.8883 378.74 15.3387 370.85 15.3387H357.168V35.1148Z" fill="black"/>
<path d="M399.214 2.35748H448.549V15.3387H414.394V31.8695H447.351V44.648H414.394V61.3816H449.348V74.3629H399.214V2.35748Z" fill="black"/>
<path d="M341.988 2.35751L357.162 2.35765L357.168 15.3387H341.988V2.35751Z" fill="#D9D9D9"/>
<path d="M247.093 15.3206L262.435 15.3206L247.093 70.0549V15.3206Z" fill="#D9D9D9"/>
<path d="M803 51L787.5 51L787.5 34L802.813 5.11277L803 51Z" fill="#D9D9D9"/>
<path d="M42.8236 1.10194L0.415212 74.7527L86.0625 74.25L42.8236 1.10194ZM42.901 14.7808L67.2726 56.0098L34.9557 56.1995L38.4894 50.0616L55.6874 49.9607L42.9784 28.4561L23.444 62.3842L70.8755 62.1058L74.4784 68.2009L11.9301 68.568L42.901 14.7808Z" fill="black"/>
</g>
<defs>
<clipPath id="clip0_17_2190">
<rect width="863.156" height="81" fill="white"/>
</clipPath>
</defs>
</svg>
