<svg width="322" height="34" viewBox="0 0 322 34" fill="none" xmlns="http://www.w3.org/2000/svg">
<g clip-path="url(#clip0_117_171)">
<path d="M183.613 21.1983C182.416 28.419 177.877 32.6171 170.863 32.6171C162.199 32.6171 156.753 25.9421 156.753 17.0842C156.753 8.2262 162.199 1.46729 170.863 1.46729C177.589 1.46729 181.499 5.41348 182.778 12.2983L176.97 12.6762C176.227 8.93987 173.958 6.84083 170.74 6.84083C165.582 6.84083 163.189 11.2488 163.189 17.0842C163.189 22.8775 165.623 27.2435 170.74 27.2435C174.164 27.2435 176.392 24.9765 177.052 20.9464L183.613 21.1983Z" fill="white"/>
<path d="M196.32 2.81067C202.386 2.81067 206.842 6.00121 206.842 11.7526C206.842 15.5309 204.696 18.0917 201.519 18.9313C204.655 19.3091 206.14 20.8205 206.388 24.053L207.13 32.6171H200.818L200.24 25.1445C200.034 22.5417 198.672 21.702 195.248 21.702H189.76V32.6171H183.489V2.81067H196.32ZM189.76 16.3705H195.413C198.631 16.3705 200.405 14.9011 200.405 12.2983C200.405 9.65355 198.672 8.18422 195.413 8.18422H189.76V16.3705Z" fill="white"/>
<path d="M207.13 32.6171L217.693 2.81067H225.12L235.682 32.6171H229.163L227.018 26.278H215.754L213.608 32.6171H207.13ZM215.754 26.278H227.018L221.406 9.5276L215.754 26.278Z" fill="white"/>
<path d="M235.682 2.81067H255.899L252.384 8.18422H241.953V15.4049H248.363L244.691 20.6945H241.953V24.053L235.682 32.6171V2.81067Z" fill="white"/>
<path d="M276.232 2.81067V8.18422H267.485V32.6171H261.172V8.18422H252.384V2.81067H276.232Z" fill="white"/>
<path d="M281.082 21.7021C281.123 25.7742 282.65 27.9152 285.456 27.9152C288.344 27.9152 289.87 25.8162 289.87 21.912L289.779 2.8107H296.058L296.139 12.3062L296.183 21.912C296.183 28.7548 291.81 33.2888 285.291 33.2888C279.143 33.2888 274.811 28.6709 274.769 22.0379L281.082 21.7021Z" fill="white"/>
<path d="M303.438 23.1714C303.974 26.3619 306.202 28.4609 309.874 28.4609C312.68 28.4609 314.578 27.3275 314.536 25.1445C314.495 22.9615 312.68 21.702 308.1 20.5686C301.746 19.0153 297.661 16.4125 297.661 11.6266C297.661 6.21112 302.117 2.81067 308.801 2.81067C315.32 2.81067 319.776 6.88281 320.478 12.8861L314.206 13.2219C313.876 10.0734 311.731 8.10025 308.636 8.10025C305.913 8.10025 303.974 9.5276 304.098 11.7106C304.18 14.2295 307.068 15.0691 310.204 15.8667C316.764 17.336 320.932 20.1907 320.932 24.9346C320.932 30.602 316.022 33.7925 309.709 33.7925C302.571 33.7925 297.537 29.7624 297.125 23.4652L303.438 23.1714Z" fill="white"/>
<path d="M0 1.6764H20.2137L16.1751 7.03844H6.27036V14.2437H11.8863L8.48401 19.522H6.27036V22.3663L0 31.419V1.6764Z" fill="white"/>
<path d="M20.2137 1.6764H40.5923L38.3454 7.03844H26.484V13.8667L35.484 13.8667L33.5613 19.1449H26.484V26.057H39.8802L37.9764 31.419H20.2137V1.6764Z" fill="white"/>
<path d="M37.9764 31.419L48.537 1.6764H55.9624L66.523 31.419H60.0051L57.8763 25.0935H46.5981L44.453 31.419H37.9764ZM48.372 19.8571L46.5981 25.0935H57.8763L52.2497 8.37896L48.372 19.8571Z" fill="white"/>
<path d="M81.5801 1.6764V7.03844H72.8346V31.419H66.523V7.03844H57.7362L55.9624 1.6764H81.5801Z" fill="white"/>
<path d="M105.713 20.7368C105.713 27.6907 101.051 32.1312 93.6671 32.1312C86.2416 32.1312 81.5801 27.6907 81.5801 20.7368V1.6764L87.8505 1.6764V20.7368C87.8505 24.6746 89.9956 26.7691 93.6671 26.7691C97.2973 26.7691 99.4424 24.6746 99.4424 20.7368V1.6764H105.713V20.7368Z" fill="white"/>
<path d="M118.542 1.67639C124.606 1.67639 129.062 4.86011 129.062 10.5992C129.062 14.3694 126.916 16.9247 123.74 17.7625C126.875 18.1396 128.36 19.6476 128.608 22.8732L129.35 31.419H123.039L122.461 23.9624C122.255 21.3652 120.894 20.5273 117.47 20.5273H111.983V31.419H105.713V1.6764L118.542 1.67639ZM111.983 15.2072H117.635C120.852 15.2072 122.626 13.741 122.626 11.1438C122.626 8.50462 120.894 7.03844 117.635 7.03844H111.983V15.2072Z" fill="white"/>
<path d="M129.35 1.67639H149.729V7.03844H135.621V13.8667H149.234V19.1449H135.621V26.0569H150.059V31.419H129.35V1.67639Z" fill="white"/>
<path d="M105.713 1.6764L111.981 1.67646L111.983 7.03844H105.713V1.6764Z" fill="#D9D9D9"/>
<path d="M66.5153 7.03089L72.8524 7.03088L66.5153 29.6395V7.03089Z" fill="#D9D9D9"/>
<path d="M295.922 24.1472L293.049 24.1313L290.175 24.1155L295.855 2.0246L295.922 24.1472Z" fill="#D9D9D9"/>
</g>
<defs>
<clipPath id="clip0_117_171">
<rect width="321.323" height="33.7462" fill="white"/>
</clipPath>
</defs>
</svg>
