<svg width="777" height="78" viewBox="0 0 777 78" fill="none" xmlns="http://www.w3.org/2000/svg">
<g clip-path="url(#clip0_17_2190)">
<path d="M444.517 47.7677C441.62 65.2487 430.632 75.4121 413.652 75.4121C392.675 75.4121 379.49 59.2523 379.49 37.8077C379.49 16.363 392.675 0 413.652 0C429.933 0 439.399 9.55355 442.495 26.2214L428.435 27.1361C426.637 18.0908 421.143 13.0091 413.352 13.0091C400.866 13.0091 395.073 23.6806 395.073 37.8077C395.073 51.8331 400.966 62.403 413.352 62.403C421.643 62.403 427.036 56.9148 428.635 47.1579L444.517 47.7677Z" fill="black"/>
<path d="M475.282 3.25227C489.965 3.25227 500.753 10.9764 500.753 24.9002C500.753 34.0472 495.559 40.2469 487.868 42.2795C495.459 43.1942 499.055 46.8531 499.655 54.6788L501.452 75.4121H486.17L484.771 57.3213C484.272 51.02 480.976 48.9873 472.685 48.9873H459.4V75.4121H444.217V3.25227H475.282ZM459.4 36.0799H473.085C480.876 36.0799 485.171 32.5227 485.171 26.2214C485.171 19.8185 480.976 16.2614 473.085 16.2614H459.4V36.0799Z" fill="black"/>
<path d="M501.452 75.4121L527.024 3.25227H545.003L570.575 75.4121H554.792L549.598 60.0654H522.329L517.135 75.4121H501.452ZM522.329 60.0654H549.598L536.014 19.5136L522.329 60.0654Z" fill="black"/>
<path d="M570.575 3.25227H619.519L611.009 16.2614H585.757V33.7423H601.274L592.385 46.5481H585.757V54.6788L570.575 75.4121V3.25227Z" fill="black"/>
<path d="M668.743 3.25227V16.2614H647.567V75.4121H632.285V16.2614H611.009V3.25227H668.743Z" fill="black"/>
<path d="M680.486 48.9874C680.586 58.8459 684.281 64.0292 691.074 64.0292C698.066 64.0292 701.762 58.9475 701.762 49.4956L701.54 3.25234H716.741L716.938 26.2405L717.045 49.4956C717.045 66.0618 706.456 77.0383 690.674 77.0383C675.791 77.0383 665.303 65.8586 665.203 49.8005L680.486 48.9874Z" fill="black"/>
<path d="M734.607 52.5445C735.906 60.2687 741.3 65.3503 750.19 65.3503C756.982 65.3503 761.577 62.6062 761.477 57.3213C761.377 52.0364 756.982 48.9873 745.895 46.2432C730.512 42.4828 720.623 36.1815 720.623 24.5953C720.623 11.4846 731.411 3.25227 747.593 3.25227C763.375 3.25227 774.163 13.1107 775.861 27.6443L760.678 28.4574C759.879 20.8349 754.685 16.0581 747.193 16.0581C740.6 16.0581 735.906 19.5136 736.205 24.7986C736.405 30.8966 743.397 32.9292 750.989 34.8603C766.871 38.4175 776.959 45.3285 776.959 56.8131C776.959 70.5336 765.073 78.2578 749.79 78.2578C732.51 78.2578 720.323 68.501 719.324 53.2559L734.607 52.5445Z" fill="black"/>
<path d="M0 0.506424H48.9363L39.1592 13.4877H15.1802V30.9312H28.7761L20.5394 43.7097H15.1802V50.5956L0 72.5118V0.506424Z" fill="black"/>
<path d="M48.9363 0.506424H98.2721L92.8322 13.4877H64.1165V30.0185L85.9051 30.0185L81.2501 42.7969H64.1165V59.5305H96.5481L91.9389 72.5118H48.9363V0.506424Z" fill="black"/>
<path d="M91.9389 72.5118L117.506 0.506424H135.482L161.049 72.5118H145.269L140.116 57.198H112.812L107.618 72.5118H91.9389ZM117.106 44.521L112.812 57.198H140.116L126.494 16.733L117.106 44.521Z" fill="black"/>
<path d="M197.501 0.506424V13.4877H176.329V72.5118H161.049V13.4877H139.777L135.482 0.506424H197.501Z" fill="black"/>
<path d="M255.925 46.6508C255.925 63.4858 244.64 74.236 226.763 74.236C208.787 74.236 197.501 63.4858 197.501 46.6508V0.506424L212.682 0.506439V46.6508C212.682 56.1839 217.875 61.2547 226.763 61.2547C235.552 61.2547 240.745 56.1839 240.745 46.6508V0.506439H255.925V46.6508Z" fill="black"/>
<path d="M286.985 0.506409C301.666 0.506409 312.452 8.21403 312.452 22.108C312.452 31.2355 307.259 37.4218 299.569 39.4502C307.159 40.3629 310.754 44.0139 311.353 51.8229L313.151 72.5118H297.871L296.473 54.4597C295.973 48.1719 292.678 46.1436 284.388 46.1436H271.106V72.5118H255.925V0.506439L286.985 0.506409ZM271.106 33.2638H284.788C292.578 33.2638 296.872 29.7142 296.872 23.4264C296.872 17.0372 292.678 13.4877 284.788 13.4877H271.106V33.2638Z" fill="black"/>
<path d="M313.151 0.506409H362.487V13.4877H328.331V30.0185H361.288V42.7969H328.331V59.5305H363.286V72.5118H313.151V0.506409Z" fill="black"/>
<path d="M255.925 0.506439L271.099 0.506572L271.106 13.4877H255.925V0.506439Z" fill="#D9D9D9"/>
<path d="M161.03 13.4696L176.372 13.4695L161.03 68.2039V13.4696Z" fill="#D9D9D9"/>
<path d="M716.937 49.1489L701.437 49.1489L701.437 32.1489L716.75 3.2617L716.937 49.1489Z" fill="#D9D9D9"/>
</g>
<defs>
<clipPath id="clip0_17_2190">
<rect width="777" height="78" fill="white"/>
</clipPath>
</defs>
</svg>
